<?xml version="1.0" standalone="no"?>
<!DOCTYPE svg PUBLIC "-//W3C//DTD SVG 20010904//EN"
 "http://www.w3.org/TR/2001/REC-SVG-20010904/DTD/svg10.dtd">
<svg version="1.0" xmlns="http://www.w3.org/2000/svg"
 width="600.000000pt" height="540.000000pt" viewBox="0 0 600.000000 540.000000"
 preserveAspectRatio="xMidYMid meet">

<g transform="translate(0.000000,540.000000) scale(0.100000,-0.100000)"
fill="#000000" stroke="none">
<path d="M3168 3813 c-12 -11 -21 -12 -34 -5 -11 5 -33 7 -51 5 -24 -4 -34
-12 -42 -34 -5 -16 -17 -29 -25 -29 -9 0 -16 -8 -16 -17 0 -9 -10 -27 -22 -40
-17 -18 -19 -26 -10 -35 7 -7 12 -27 12 -45 0 -18 4 -33 10 -33 6 0 5 -10 -2
-25 -9 -20 -8 -28 5 -43 10 -10 17 -31 17 -45 0 -19 5 -27 18 -27 9 0 26 -7
36 -15 11 -8 27 -15 36 -15 31 0 57 -36 64 -91 8 -60 -2 -77 -32 -58 -18 12
-25 10 -51 -9 -17 -12 -45 -22 -64 -22 -26 0 -44 -10 -81 -45 -29 -27 -58 -45
-71 -45 -17 0 -25 -7 -27 -22 -2 -17 -13 -25 -40 -32 -30 -8 -41 -18 -57 -50
-36 -74 -33 -73 -100 -26 -34 24 -61 45 -61 48 0 3 8 11 17 17 17 12 17 14 -2
35 -15 17 -19 35 -18 81 1 55 -1 61 -29 82 -16 12 -41 32 -54 45 -28 25 -53
27 -106 8 -33 -12 -38 -11 -56 7 -22 22 -42 16 -42 -13 0 -23 -48 -70 -72 -70
-25 0 -48 -39 -48 -82 0 -21 -5 -47 -12 -58 -11 -16 -9 -23 10 -40 15 -14 20
-28 17 -43 -5 -17 2 -30 24 -50 17 -15 31 -32 31 -37 0 -6 8 -10 18 -10 9 0
26 -7 36 -15 11 -8 28 -13 38 -9 10 3 31 -3 48 -12 29 -18 30 -17 54 5 16 15
31 21 44 17 20 -7 46 11 54 36 3 9 21 2 56 -22 42 -28 51 -39 46 -55 -3 -11
-6 -30 -6 -42 0 -13 -4 -23 -8 -23 -4 0 -15 -11 -24 -25 -13 -20 -15 -33 -7
-60 8 -30 7 -37 -10 -49 -19 -13 -19 -16 -6 -48 12 -29 12 -37 1 -53 -20 -27
-17 -53 6 -65 11 -6 17 -16 14 -25 -4 -9 -1 -22 6 -30 7 -8 10 -25 6 -38 -4
-18 2 -31 27 -53 17 -17 42 -41 54 -54 42 -47 46 -48 70 -19 13 15 23 36 23
47 0 20 15 37 78 87 17 15 32 36 32 47 0 16 5 19 26 15 18 -3 27 0 32 12 3 9
14 22 24 29 10 7 18 22 18 34 0 16 5 19 23 14 19 -4 32 4 71 50 35 40 53 53
66 49 25 -8 90 32 90 56 0 14 6 19 23 18 43 -4 56 1 59 24 2 15 11 23 28 25
14 2 30 8 37 14 7 5 21 7 32 3 12 -4 23 0 28 9 9 16 91 36 146 36 17 0 45 11
63 25 31 23 36 24 66 13 18 -7 49 -12 69 -10 33 3 35 5 31 34 -3 17 -12 33
-21 35 -22 6 -62 70 -54 89 3 9 -3 24 -16 35 -11 11 -21 23 -21 27 0 4 -14 13
-31 21 -17 7 -33 21 -36 30 -9 26 -35 51 -51 51 -9 0 -35 9 -59 21 -26 13 -55
19 -70 16 -31 -6 -84 11 -99 31 -9 12 -17 13 -47 3 -20 -7 -41 -10 -46 -7 -5
3 -12 33 -16 65 -6 51 -4 63 12 79 10 11 29 22 43 24 19 2 26 10 28 31 2 16
14 34 28 44 22 14 25 22 19 49 -3 18 -1 35 5 39 16 10 11 58 -10 90 -11 17
-20 45 -20 62 0 27 -4 34 -27 39 -16 3 -38 10 -50 16 -12 6 -29 8 -37 5 -9 -4
-27 -2 -40 3 -17 6 -27 4 -38 -7z"/>
<path d="M3850 2778 c0 -19 2 -20 10 -8 13 19 13 30 0 30 -5 0 -10 -10 -10
-22z"/>
<path d="M3817 2739 c-10 -6 -30 -12 -45 -13 -19 -2 -28 -10 -30 -25 -3 -19
-8 -21 -31 -16 -23 5 -29 2 -34 -14 -3 -12 -13 -21 -25 -21 -11 0 -22 -9 -25
-20 -3 -12 -14 -20 -27 -20 -13 0 -24 -8 -27 -20 -3 -13 -14 -20 -28 -20 -12
0 -28 -7 -35 -15 -7 -9 -19 -14 -26 -11 -7 3 -18 -2 -24 -10 -7 -8 -23 -14
-35 -14 -14 0 -25 -7 -28 -20 -3 -11 -17 -24 -31 -30 -14 -5 -31 -18 -38 -30
-8 -12 -23 -20 -40 -20 -22 0 -28 -5 -28 -21 0 -17 -4 -20 -29 -14 -21 4 -30
2 -34 -9 -4 -9 -18 -16 -32 -16 -19 0 -25 -5 -25 -21 0 -13 -11 -25 -32 -34
-18 -7 -39 -23 -46 -34 -9 -16 -22 -21 -52 -21 -29 0 -40 -4 -40 -15 0 -9 -9
-15 -24 -15 -15 0 -27 -7 -30 -17 -4 -10 -29 -28 -58 -41 -28 -12 -49 -24 -47
-26 2 -2 60 1 129 6 126 10 444 7 455 -3 7 -7 -14 -57 -76 -182 -27 -54 -49
-101 -49 -103 0 -3 9 0 20 6 11 6 20 20 20 30 0 11 4 20 9 20 6 0 22 11 37 25
15 14 36 25 48 25 42 0 64 12 71 37 4 16 11 23 20 20 23 -10 82 12 98 36 8 13
35 29 58 37 47 14 78 44 79 73 0 19 8 21 30 7 11 -7 16 -4 20 12 7 28 59 57
99 56 17 -1 34 1 36 4 3 3 -64 7 -150 10 -85 3 -158 8 -161 11 -8 7 126 285
192 400 25 43 44 80 42 82 -2 2 -11 -1 -21 -6z"/>
<path d="M4565 2241 c-3 -6 -17 -11 -31 -11 -14 0 -24 -6 -24 -14 0 -16 -63
-56 -89 -56 -10 0 -24 -7 -31 -15 -7 -8 -20 -15 -30 -15 -10 0 -23 -7 -30 -15
-7 -8 -20 -14 -29 -13 -10 2 -17 -5 -19 -19 -3 -23 -55 -53 -90 -53 -14 0 -22
-8 -24 -22 -3 -23 -9 -25 -39 -13 -11 4 -18 0 -22 -14 -2 -11 -15 -21 -28 -23
-16 -2 -25 -11 -27 -26 -3 -18 -8 -21 -23 -17 -15 5 -22 1 -26 -14 -3 -14 -13
-21 -28 -21 -12 0 -28 -7 -35 -15 -7 -8 -17 -15 -23 -15 -23 0 -87 -36 -92
-52 -4 -10 -15 -18 -25 -18 -11 0 -29 -13 -41 -30 -17 -23 -28 -28 -46 -24
-19 5 -23 2 -23 -16 0 -19 -4 -21 -29 -15 -21 4 -30 2 -34 -9 -4 -9 -17 -16
-31 -16 -18 0 -25 -6 -28 -22 -2 -15 -16 -30 -40 -41 -21 -10 -38 -25 -38 -33
0 -13 -21 -18 -66 -15 -14 1 -23 -5 -27 -18 -3 -14 -11 -18 -26 -14 -16 4 -23
-1 -30 -20 -6 -16 -20 -27 -39 -32 -16 -3 -47 -22 -68 -41 -22 -18 -49 -34
-61 -34 -14 0 -23 -6 -23 -15 0 -18 -31 -35 -64 -35 -20 0 -26 -5 -26 -21 0
-27 -27 -48 -62 -49 -16 0 -28 -4 -28 -10 0 -5 4 -10 9 -10 5 0 24 -20 42 -45
25 -32 41 -44 60 -45 29 0 59 -28 59 -53 0 -12 9 -17 31 -17 34 0 70 -16 82
-36 4 -7 30 -16 58 -20 31 -4 58 -15 70 -27 15 -16 21 -18 33 -8 8 6 25 9 38
6 26 -6 46 8 73 48 14 22 23 27 42 22 20 -5 23 -2 23 21 0 23 3 25 30 19 27
-6 30 -4 30 19 0 23 3 26 24 20 38 -9 66 4 66 32 0 14 6 24 14 24 8 0 21 9 28
19 8 11 25 22 38 25 14 2 37 7 53 11 18 3 27 12 27 24 0 15 10 20 46 26 26 3
55 16 67 28 23 23 84 57 103 57 16 0 44 34 44 54 0 14 5 17 25 12 20 -5 25 -3
25 13 0 24 50 52 100 56 22 2 40 12 49 24 7 12 21 21 31 21 18 0 37 18 55 54
9 16 19 21 48 19 31 -2 37 1 37 17 0 15 7 20 24 20 32 0 38 11 41 76 1 32 9
61 18 72 17 19 21 84 14 217 -4 57 -12 95 -30 133 -14 29 -28 49 -32 43z"/>
</g>
</svg>
